<?xml version="1.0" encoding="utf-8"?>
<svg width="275.625px" height="54.181824px" viewBox="0 0 275.625 54.181824" version="1.1" xmlns:xlink="http://www.w3.org/1999/xlink" xmlns="http://www.w3.org/2000/svg">
  <g id="Group-2" transform="translate(0.5 0.5)">
    <path d="M158.159 52.3636L158.159 28.7386C158.159 25.3125 159.135 22.6662 161.087 20.7997C163.038 18.9332 165.506 18 168.489 18C171.335 18 173.564 18.8565 175.175 20.5696C176.786 22.2827 177.591 24.6989 177.591 27.8182L177.591 52.3636L183.625 52.3636L183.625 27.4091C183.625 22.3636 182.398 18.6307 179.943 16.2102C177.489 13.7898 174.25 12.5796 170.227 12.5796C167.142 12.5796 164.675 13.1804 162.825 14.3821C160.976 15.5838 159.591 17.1989 158.67 19.2273L158.159 19.2273L158.159 0L152.125 0L152.125 52.3636L158.159 52.3636L158.159 52.3636ZM123.375 50.5739C126.034 52.3125 129.205 53.1818 132.886 53.1818C135.784 53.1818 138.328 52.6407 140.518 51.5583C142.709 50.4759 144.473 49.0099 145.811 47.1605C147.149 45.3111 147.989 43.2273 148.33 40.9091L142.295 40.9091C141.733 43.0568 140.612 44.7358 138.933 45.946C137.254 47.1563 135.239 47.7614 132.886 47.7614C129.307 47.7614 126.452 46.3935 124.321 43.6577C122.19 40.9219 121.125 37.2784 121.125 32.7273C121.125 28.2784 122.203 24.7117 124.359 22.027C126.516 19.3423 129.358 18 132.886 18C135.545 18 137.663 18.6946 139.24 20.0838C140.817 21.473 141.835 23.0625 142.295 24.8523L148.33 24.8523C147.989 22.3977 147.111 20.25 145.696 18.4091C144.281 16.5682 142.466 15.1364 140.25 14.1136C138.034 13.0909 135.545 12.5796 132.784 12.5796C129.239 12.5796 126.141 13.4446 123.49 15.1747C120.839 16.9048 118.777 19.2997 117.302 22.3594C115.828 25.419 115.091 28.9432 115.091 32.9318C115.091 36.8523 115.807 40.3381 117.239 43.3892C118.67 46.4404 120.716 48.8352 123.375 50.5739L123.375 50.5739ZM95.1364 13.0909L95.1364 52.3636L101.17 52.3636L101.17 27.5114C101.17 24.8523 102.108 22.6534 103.983 20.9148C105.858 19.1761 108.227 18.3068 111.091 18.3068C111.892 18.3068 112.655 18.3622 113.379 18.473C114.104 18.5838 114.568 18.6648 114.773 18.7159L114.773 12.5795C114.432 12.5454 113.929 12.5199 113.264 12.5028C112.599 12.4858 112.045 12.4773 111.602 12.4773C109.25 12.4773 107.136 13.0824 105.261 14.2926C103.386 15.5028 102.091 17.0795 101.375 19.0227L100.966 19.0227L100.966 13.0909L95.1364 13.0909L95.1364 13.0909ZM64.8906 50.6634C67.6264 52.3423 70.8864 53.1818 74.6705 53.1818C78.6591 53.1818 82.0341 52.2699 84.7955 50.446C87.5568 48.6222 89.3977 46.2273 90.3182 43.2614L84.4886 41.625C83.7216 43.6705 82.4858 45.2046 80.7813 46.2273C79.0767 47.25 77.0398 47.7614 74.6705 47.7614C71.125 47.7614 68.2315 46.6449 65.9901 44.4119C63.7486 42.179 62.5597 38.9659 62.4233 34.7727L90.9318 34.7727L90.9318 32.2159C90.9318 28.5511 90.446 25.4659 89.4745 22.9602C88.5029 20.4546 87.1989 18.4389 85.5625 16.9134C83.9261 15.3878 82.1108 14.2841 80.1165 13.6023C78.1222 12.9205 76.1023 12.5796 74.0568 12.5796C70.5114 12.5796 67.4134 13.4446 64.7628 15.1747C62.1122 16.9048 60.0497 19.3083 58.5753 22.3849C57.1009 25.4617 56.3636 29.0114 56.3636 33.0341C56.3636 37.0568 57.1009 40.581 58.5753 43.6065C60.0497 46.6321 62.1548 48.9844 64.8906 50.6634L64.8906 50.6634ZM84.7954 29.5568L62.4233 29.5568C62.5596 27.5284 63.1136 25.6321 64.0852 23.8679C65.0568 22.1037 66.3864 20.6847 68.0739 19.6108C69.7614 18.5369 71.7557 18 74.0568 18C77.3295 18 79.9375 19.0952 81.8807 21.2855C83.8239 23.4759 84.7954 26.233 84.7954 29.5568L84.7954 29.5568ZM7.56818 0L0 0L0 52.3636L5.93182 52.3636L5.93182 12.5796L6.44318 12.5796L22.8068 52.3636L28.5341 52.3636L44.8977 12.5796L45.4091 12.5796L45.4091 52.3636L51.3409 52.3636L51.3409 0L43.7727 0L25.9773 43.4659L25.3636 43.4659L7.56818 0L7.56818 0Z" id="Vector" fill="#FFFFFF" stroke="none" />
    <g id="Group" transform="translate(192.125 0.68182373)">
      <path d="M38.5 0L55.5 26L38.5 52.5L0 52.5L0 0L38.5 0ZM6.5 23L6.5 6L32.5 6L46 26L32.5 46.5L6.5 46.5L6.5 29L30 29L30 23L6.5 23Z" id="New-shape-Difference" fill="#EFB328" fill-rule="evenodd" stroke="#808080" stroke-opacity="0" stroke-width="1" />
      <path d="M74.5 0L58.5 26L74.5 52.5L82.5 52.5L66 26L82.5 0L74.5 0Z" id="New-shape-3" fill="#EFB328" fill-rule="evenodd" stroke="none" />
    </g>
  </g>
</svg>